<mxfile host="app.diagrams.net" modified="2020-09-18T01:12:52.822Z" agent="5.0 (Windows NT 10.0; Win64; x64) AppleWebKit/537.36 (KHTML, like Gecko) Chrome/85.0.4183.102 Safari/537.36" etag="2LSQmlZBXLUiNARfTWi6" version="13.7.3" type="github">
  <diagram id="-ceab2DvpuC59-mp2N5p" name="Page-1">
    <mxGraphModel dx="1052" dy="900" grid="1" gridSize="10" guides="1" tooltips="1" connect="1" arrows="1" fold="1" page="1" pageScale="1" pageWidth="827" pageHeight="1169" math="0" shadow="0">
      <root>
        <mxCell id="0" />
        <mxCell id="1" parent="0" />
        <mxCell id="_ff0B6UNeOiOKf9AFcSQ-9" value="" style="edgeStyle=orthogonalEdgeStyle;rounded=0;orthogonalLoop=1;jettySize=auto;html=1;" edge="1" parent="1" source="_ff0B6UNeOiOKf9AFcSQ-2" target="_ff0B6UNeOiOKf9AFcSQ-3">
          <mxGeometry relative="1" as="geometry" />
        </mxCell>
        <mxCell id="_ff0B6UNeOiOKf9AFcSQ-11" style="edgeStyle=orthogonalEdgeStyle;rounded=0;orthogonalLoop=1;jettySize=auto;html=1;" edge="1" parent="1" source="_ff0B6UNeOiOKf9AFcSQ-2" target="_ff0B6UNeOiOKf9AFcSQ-4">
          <mxGeometry relative="1" as="geometry">
            <Array as="points">
              <mxPoint x="120" y="150" />
              <mxPoint x="120" y="150" />
            </Array>
          </mxGeometry>
        </mxCell>
        <mxCell id="_ff0B6UNeOiOKf9AFcSQ-2" value="inicio" style="rounded=1;whiteSpace=wrap;html=1;" vertex="1" parent="1">
          <mxGeometry x="60" y="60" width="110" height="60" as="geometry" />
        </mxCell>
        <mxCell id="_ff0B6UNeOiOKf9AFcSQ-12" style="edgeStyle=orthogonalEdgeStyle;rounded=0;orthogonalLoop=1;jettySize=auto;html=1;" edge="1" parent="1" source="_ff0B6UNeOiOKf9AFcSQ-3">
          <mxGeometry relative="1" as="geometry">
            <mxPoint x="120" y="180" as="targetPoint" />
            <Array as="points">
              <mxPoint x="280" y="170" />
              <mxPoint x="120" y="170" />
            </Array>
          </mxGeometry>
        </mxCell>
        <mxCell id="_ff0B6UNeOiOKf9AFcSQ-3" value="definir 10 pines" style="rounded=1;whiteSpace=wrap;html=1;" vertex="1" parent="1">
          <mxGeometry x="220" y="60" width="120" height="60" as="geometry" />
        </mxCell>
        <mxCell id="_ff0B6UNeOiOKf9AFcSQ-36" style="edgeStyle=orthogonalEdgeStyle;rounded=0;orthogonalLoop=1;jettySize=auto;html=1;exitX=0.5;exitY=1;exitDx=0;exitDy=0;entryX=0.5;entryY=0;entryDx=0;entryDy=0;" edge="1" parent="1" source="_ff0B6UNeOiOKf9AFcSQ-4" target="_ff0B6UNeOiOKf9AFcSQ-6">
          <mxGeometry relative="1" as="geometry" />
        </mxCell>
        <mxCell id="_ff0B6UNeOiOKf9AFcSQ-4" value="loop" style="rounded=1;whiteSpace=wrap;html=1;" vertex="1" parent="1">
          <mxGeometry x="60" y="210" width="120" height="60" as="geometry" />
        </mxCell>
        <mxCell id="_ff0B6UNeOiOKf9AFcSQ-19" style="edgeStyle=orthogonalEdgeStyle;rounded=0;orthogonalLoop=1;jettySize=auto;html=1;" edge="1" parent="1" source="_ff0B6UNeOiOKf9AFcSQ-5" target="_ff0B6UNeOiOKf9AFcSQ-8">
          <mxGeometry relative="1" as="geometry" />
        </mxCell>
        <mxCell id="_ff0B6UNeOiOKf9AFcSQ-5" value="enciende led op" style="rounded=1;whiteSpace=wrap;html=1;" vertex="1" parent="1">
          <mxGeometry x="220" y="300" width="120" height="60" as="geometry" />
        </mxCell>
        <mxCell id="_ff0B6UNeOiOKf9AFcSQ-18" style="edgeStyle=orthogonalEdgeStyle;rounded=0;orthogonalLoop=1;jettySize=auto;html=1;entryX=0;entryY=0.5;entryDx=0;entryDy=0;" edge="1" parent="1" source="_ff0B6UNeOiOKf9AFcSQ-6" target="_ff0B6UNeOiOKf9AFcSQ-5">
          <mxGeometry relative="1" as="geometry" />
        </mxCell>
        <mxCell id="_ff0B6UNeOiOKf9AFcSQ-6" value="enciende led 1" style="rounded=1;whiteSpace=wrap;html=1;" vertex="1" parent="1">
          <mxGeometry x="60" y="300" width="120" height="60" as="geometry" />
        </mxCell>
        <mxCell id="_ff0B6UNeOiOKf9AFcSQ-24" style="edgeStyle=orthogonalEdgeStyle;rounded=0;orthogonalLoop=1;jettySize=auto;html=1;entryX=0;entryY=0.5;entryDx=0;entryDy=0;" edge="1" parent="1" source="_ff0B6UNeOiOKf9AFcSQ-7" target="_ff0B6UNeOiOKf9AFcSQ-13">
          <mxGeometry relative="1" as="geometry" />
        </mxCell>
        <mxCell id="_ff0B6UNeOiOKf9AFcSQ-7" value="enciende led N" style="rounded=1;whiteSpace=wrap;html=1;fontStyle=1" vertex="1" parent="1">
          <mxGeometry x="60" y="440" width="120" height="60" as="geometry" />
        </mxCell>
        <mxCell id="_ff0B6UNeOiOKf9AFcSQ-23" style="edgeStyle=orthogonalEdgeStyle;rounded=0;orthogonalLoop=1;jettySize=auto;html=1;" edge="1" parent="1" source="_ff0B6UNeOiOKf9AFcSQ-8" target="_ff0B6UNeOiOKf9AFcSQ-7">
          <mxGeometry relative="1" as="geometry">
            <Array as="points">
              <mxPoint x="440" y="390" />
              <mxPoint x="120" y="390" />
            </Array>
          </mxGeometry>
        </mxCell>
        <mxCell id="_ff0B6UNeOiOKf9AFcSQ-8" value="esperar 1 seg" style="rounded=1;whiteSpace=wrap;html=1;fontStyle=1" vertex="1" parent="1">
          <mxGeometry x="380" y="300" width="120" height="60" as="geometry" />
        </mxCell>
        <mxCell id="_ff0B6UNeOiOKf9AFcSQ-25" style="edgeStyle=orthogonalEdgeStyle;rounded=0;orthogonalLoop=1;jettySize=auto;html=1;entryX=0;entryY=0.5;entryDx=0;entryDy=0;" edge="1" parent="1" source="_ff0B6UNeOiOKf9AFcSQ-13" target="_ff0B6UNeOiOKf9AFcSQ-14">
          <mxGeometry relative="1" as="geometry" />
        </mxCell>
        <mxCell id="_ff0B6UNeOiOKf9AFcSQ-13" value="enciende led n op" style="rounded=1;whiteSpace=wrap;html=1;" vertex="1" parent="1">
          <mxGeometry x="220" y="440" width="120" height="60" as="geometry" />
        </mxCell>
        <mxCell id="_ff0B6UNeOiOKf9AFcSQ-26" style="edgeStyle=orthogonalEdgeStyle;rounded=0;orthogonalLoop=1;jettySize=auto;html=1;entryX=0.5;entryY=0;entryDx=0;entryDy=0;" edge="1" parent="1" source="_ff0B6UNeOiOKf9AFcSQ-14" target="_ff0B6UNeOiOKf9AFcSQ-15">
          <mxGeometry relative="1" as="geometry">
            <Array as="points">
              <mxPoint x="440" y="570" />
              <mxPoint x="130" y="570" />
            </Array>
          </mxGeometry>
        </mxCell>
        <mxCell id="_ff0B6UNeOiOKf9AFcSQ-14" value="esperar 1 seg" style="rounded=1;whiteSpace=wrap;html=1;fontStyle=1" vertex="1" parent="1">
          <mxGeometry x="380" y="440" width="120" height="60" as="geometry" />
        </mxCell>
        <mxCell id="_ff0B6UNeOiOKf9AFcSQ-27" style="edgeStyle=orthogonalEdgeStyle;rounded=0;orthogonalLoop=1;jettySize=auto;html=1;" edge="1" parent="1" source="_ff0B6UNeOiOKf9AFcSQ-15" target="_ff0B6UNeOiOKf9AFcSQ-16">
          <mxGeometry relative="1" as="geometry" />
        </mxCell>
        <mxCell id="_ff0B6UNeOiOKf9AFcSQ-15" value="apaga led N op" style="rounded=1;whiteSpace=wrap;html=1;fontStyle=1" vertex="1" parent="1">
          <mxGeometry x="70" y="660" width="120" height="60" as="geometry" />
        </mxCell>
        <mxCell id="_ff0B6UNeOiOKf9AFcSQ-28" style="edgeStyle=orthogonalEdgeStyle;rounded=0;orthogonalLoop=1;jettySize=auto;html=1;entryX=0;entryY=0.5;entryDx=0;entryDy=0;" edge="1" parent="1" source="_ff0B6UNeOiOKf9AFcSQ-16" target="_ff0B6UNeOiOKf9AFcSQ-17">
          <mxGeometry relative="1" as="geometry" />
        </mxCell>
        <mxCell id="_ff0B6UNeOiOKf9AFcSQ-16" value="apaga led n" style="rounded=1;whiteSpace=wrap;html=1;" vertex="1" parent="1">
          <mxGeometry x="230" y="660" width="120" height="60" as="geometry" />
        </mxCell>
        <mxCell id="_ff0B6UNeOiOKf9AFcSQ-34" style="edgeStyle=orthogonalEdgeStyle;rounded=0;orthogonalLoop=1;jettySize=auto;html=1;" edge="1" parent="1" source="_ff0B6UNeOiOKf9AFcSQ-17" target="_ff0B6UNeOiOKf9AFcSQ-30">
          <mxGeometry relative="1" as="geometry">
            <Array as="points">
              <mxPoint x="440" y="770" />
              <mxPoint x="135" y="770" />
            </Array>
          </mxGeometry>
        </mxCell>
        <mxCell id="_ff0B6UNeOiOKf9AFcSQ-17" value="esperar 1 seg" style="rounded=1;whiteSpace=wrap;html=1;fontStyle=1" vertex="1" parent="1">
          <mxGeometry x="380" y="660" width="120" height="60" as="geometry" />
        </mxCell>
        <mxCell id="_ff0B6UNeOiOKf9AFcSQ-29" style="edgeStyle=orthogonalEdgeStyle;rounded=0;orthogonalLoop=1;jettySize=auto;html=1;" edge="1" parent="1" source="_ff0B6UNeOiOKf9AFcSQ-30" target="_ff0B6UNeOiOKf9AFcSQ-32">
          <mxGeometry relative="1" as="geometry" />
        </mxCell>
        <mxCell id="_ff0B6UNeOiOKf9AFcSQ-30" value="apaga led 1 op" style="rounded=1;whiteSpace=wrap;html=1;fontStyle=1" vertex="1" parent="1">
          <mxGeometry x="75" y="810" width="120" height="60" as="geometry" />
        </mxCell>
        <mxCell id="_ff0B6UNeOiOKf9AFcSQ-31" style="edgeStyle=orthogonalEdgeStyle;rounded=0;orthogonalLoop=1;jettySize=auto;html=1;entryX=0;entryY=0.5;entryDx=0;entryDy=0;" edge="1" parent="1" source="_ff0B6UNeOiOKf9AFcSQ-32" target="_ff0B6UNeOiOKf9AFcSQ-33">
          <mxGeometry relative="1" as="geometry" />
        </mxCell>
        <mxCell id="_ff0B6UNeOiOKf9AFcSQ-32" value="apaga led 1" style="rounded=1;whiteSpace=wrap;html=1;" vertex="1" parent="1">
          <mxGeometry x="235" y="810" width="120" height="60" as="geometry" />
        </mxCell>
        <mxCell id="_ff0B6UNeOiOKf9AFcSQ-35" style="edgeStyle=orthogonalEdgeStyle;rounded=0;orthogonalLoop=1;jettySize=auto;html=1;entryX=0;entryY=0.5;entryDx=0;entryDy=0;" edge="1" parent="1" source="_ff0B6UNeOiOKf9AFcSQ-33" target="_ff0B6UNeOiOKf9AFcSQ-4">
          <mxGeometry relative="1" as="geometry">
            <Array as="points">
              <mxPoint x="474" y="950" />
              <mxPoint x="40" y="950" />
              <mxPoint x="40" y="240" />
            </Array>
          </mxGeometry>
        </mxCell>
        <mxCell id="_ff0B6UNeOiOKf9AFcSQ-33" value="esperar 1 seg" style="rounded=1;whiteSpace=wrap;html=1;fontStyle=1" vertex="1" parent="1">
          <mxGeometry x="414" y="810" width="120" height="60" as="geometry" />
        </mxCell>
      </root>
    </mxGraphModel>
  </diagram>
</mxfile>
